/* XPM */
static char *package_xpm[] = {
/* columns rows colors chars-per-pixel */
"32 32 222 2",
"   c #36417A",
".  c #404A84",
"X  c #46508A",
"o  c #405090",
"O  c #485797",
"+  c #505E9F",
"@  c #4D59A1",
"#  c #4D5FAC",
"$  c #515DA5",
"%  c #5563A5",
"&  c #5661AA",
"*  c #5963AC",
"=  c #5A65AE",
"-  c #5B68AB",
";  c #5566B4",
":  c #5669B0",
">  c #5D6DBC",
",  c #696EA0",
"<  c #6D77AF",
"1  c #6773B7",
"2  c #7B77A0",
"3  c #6170C0",
"4  c #6473C3",
"5  c #627AC9",
"6  c #6D7CCC",
"7  c #6A7FD5",
"8  c #7780B9",
"9  c #7D86BF",
"0  c #7081CB",
"q  c #7381D2",
"w  c #7583D5",
"e  c #7185DC",
"r  c #768DDD",
"t  c #7989D4",
"y  c #7E8BDD",
"u  c #7F90C8",
"i  c #6E8CE1",
"p  c #778BE3",
"a  c #7B97EE",
"s  c #7E97F5",
"d  c #F7AE1C",
"f  c #F6B21F",
"g  c #FCB213",
"h  c #F9B523",
"j  c #FCB827",
"k  c #FBBD35",
"l  c #CBAB79",
"z  c #D2B078",
"x  c #E1B759",
"c  c #EFBD59",
"v  c #F2B850",
"b  c #F7BD55",
"n  c #FFBE51",
"m  c #E2B87B",
"M  c #FFC12F",
"N  c #FFC632",
"B  c #FEC038",
"V  c #FFC83E",
"C  c #FFC243",
"Z  c #FEC746",
"A  c #FFCD41",
"S  c #FFC948",
"D  c #FEC84F",
"F  c #FFCF4C",
"G  c #FEC252",
"H  c #FECE52",
"J  c #FDCE59",
"K  c #FFCC5A",
"L  c #FDD24D",
"P  c #FFD557",
"I  c #FDD45D",
"U  c #FFC765",
"Y  c #FFCF72",
"T  c #FFD265",
"R  c #FED16B",
"E  c #FED76E",
"W  c #FFDE6C",
"Q  c #FFD373",
"!  c #FDD87D",
"~  c #868EBB",
"^  c #8995BB",
"/  c #929ABB",
"(  c #9D9DB4",
")  c #B5A08A",
"_  c #BAA696",
"`  c #AFACBD",
"'  c #B4A7A8",
"]  c #8393DE",
"[  c #859CD9",
"{  c #8E9CDC",
"}  c #919CC2",
"|  c #8797E3",
" . c #8194ED",
".. c #859AEC",
"X. c #8E9DEA",
"o. c #829BFA",
"O. c #859EFD",
"+. c #96A2D6",
"@. c #9DA5D3",
"#. c #87A2E6",
"$. c #8FA1E7",
"%. c #82A4FF",
"&. c #87A2FA",
"*. c #85ADFD",
"=. c #8BA0F3",
"-. c #89A1FF",
";. c #8AA5FE",
":. c #8EA9FF",
">. c #8EACFD",
",. c #81B3FF",
"<. c #84B9FF",
"1. c #8DB7FF",
"2. c #8FBDFE",
"3. c #94A7ED",
"4. c #94A3F0",
"5. c #92A7FA",
"6. c #9BADF4",
"7. c #94B8FB",
"8. c #97B8FF",
"9. c #9BB6FB",
"0. c #9DB4FF",
"q. c #99BDFF",
"w. c #9FBDFB",
"e. c #A5B0D7",
"r. c #B0A8C0",
"t. c #B0B7D9",
"y. c #A0ADEE",
"u. c #A7B3E7",
"i. c #A4B4EE",
"p. c #AEB9EE",
"a. c #A5B6FE",
"s. c #ADB5F1",
"d. c #A8B8F3",
"f. c #A8BDFD",
"g. c #B3BFF4",
"h. c #92C0FF",
"j. c #99C0FD",
"k. c #99D1FE",
"l. c #9CD5FF",
"z. c #A2CDFF",
"x. c #A7C9FF",
"c. c #ADC6FF",
"v. c #ABC8F9",
"b. c #A8CEFE",
"n. c #A3D6FD",
"m. c #ACD2FF",
"M. c #ADD6FF",
"N. c #B6C1E9",
"B. c #B7CBFF",
"V. c #B4CCF8",
"C. c #BEC5F5",
"Z. c #B3D3FE",
"A. c #BED2F9",
"S. c #BCD4FF",
"D. c #B9DEFF",
"F. c #BEDAFF",
"G. c #CAAE87",
"H. c #C9B095",
"J. c #C6B6B1",
"K. c #E2C999",
"L. c #F2D28A",
"P. c #FFE183",
"I. c #FEE189",
"U. c #FFE198",
"Y. c #FFE79C",
"T. c #FDE895",
"R. c #FFEB97",
"E. c #FFE6A1",
"W. c #FFEDA6",
"Q. c #FFF2B1",
"!. c #FDF5B2",
"~. c #FFF8BB",
"^. c #C5C2C7",
"/. c #D5D4CB",
"(. c #C1CCF4",
"). c #C3D3FF",
"_. c #C6DAFF",
"`. c #CAD6FE",
"'. c #CED9FF",
"]. c #CEDEFF",
"[. c #D4DBFE",
"{. c #C0E0FE",
"}. c #C3E4FF",
"|. c #C7ECFF",
" X c #C8E0FF",
".X c #CAE6FE",
"XX c #CFE3FC",
"oX c #D2E1FF",
"OX c #D2E6FF",
"+X c #D7E3FF",
"@X c #D5EDFF",
"#X c #DAEAFE",
"$X c #DDEDFF",
"%X c #DCF0FD",
"&X c #E3E7D6",
"*X c #EFF0D9",
"=X c #F7F0C7",
"-X c #FFF6C0",
";X c #FBFFC6",
":X c #FFFDC6",
">X c #FFFECD",
",X c #F3F4DD",
"<X c #FEFFD3",
"1X c #FDFFDB",
"2X c #E0E7FD",
"3X c #E3EFFE",
"4X c #E4ECFF",
"5X c #E8EDFD",
"6X c #E6F2FF",
"7X c #E5F5FC",
"8X c #EEF6FF",
"9X c #EAFBFF",
"0X c #FFFEE1",
"qX c #F2F3FD",
"wX c #F0F9FF",
"eX c #F4FAFC",
"rX c #F7F8FF",
"tX c #F6FBFE",
"yX c #F7FDFF",
"uX c #F9FFFF",
"iX c #FEFFFC",
"pX c None",
/* pixels */
"pXpXpXpXpXpXpXpXpXpXpXpXpXpXpXpXpXpXpXpXpXpXpXpXpXpXpXpXpXpXpXpX",
"pXpXpXpXpXpXpXpXpXpXpXpXpXpX . .pXpXpXpX7 7 pXpXpXpXpXpXpXpXpXpX",
"pXpXpXpXpXpXpXpXpXpXpXpXo.i.,X$.pXpXpXw [ &X6 pXpXpXpXpXpXpXpXpX",
"pXpXpXpXpXpXpXpXpXpX;.5./.~.>X&Xp pXe { 1X1X*X[ > pXpXpXpXpXpXpX",
"pXpXpXpXpXpXpXpXpX:.^.E.Y.W.Q.!.e.e t.1X1X1X1X<X} = pXpXpXpXpXpX",
"pXpXpXpXpXpXpXpXpX6.Q ! I.I.Y.W.E.G.;X~.~.;X;X;X=X} ; pXpXpXpXpX",
"pXpXpXpXpXpXpXpXpX&.J.U Y Q ! I F g J !.W.W.!.Q.W.Q.( # pXpXpXpX",
"pXpXpXpXpXpXpXpXpXpX;.b G G V V L h g S R.R.R.T.R.R.R.' $ pXpXpX",
"pXpXpXpXpXpXpXpXpXpX%.r.N M A F P k g h Z ! I.I.L.P.P.P.H.$ pXpX",
"pXpXpXpXpXpXpXpXpXpXpX%.` D F F I k d f k Z T E Q E E Q Q , . pX",
"pXpXpXpXpXpXpXpXpXpXpXa.>.@.J I I k k h k k Z J I T J U 2 O pXpX",
"pXpXpXpXpXpXpXpXpXpXpX9.b.>.+.R W C d k k Z C Z D C n 2 @ pXpXpX",
"pXpXpXpXpXpXpXpXpXpXpXf.b.z.>...L.Z j k k C C D J v 2 $ pXpXpXpX",
"pXpXpXpXpXpXpXpXpXpXpXa.z.b.b.q.r x k k C Z D H ) 1 } ~ ~ # # @ ",
"pXpXpXpXpXpX-.O.o.o.&.a.x.<.z.b.9.t z k n Z z < } =X>X>X=X^ +   ",
"pXpXpXpX-.f.[.].`.B.0.3.*.,.<.b.z.q.y l c } } K.I.T.U.' ; . pXpX",
"pXpX&.a.qXyXtXeX#X`.+X'.6.a ,.7.Z.Z.x.e 6 0 _ H.m G.< O pXpXpXpX",
"pXpX0.yXiXiXiX8X2X+X+XyXyX6.a ,.<.M.D.Z.c.1.$.#.t 5 : pXpXpXpXpX",
"pX:.wXiXiXiXiXyX$X$X6XiXiXyXX.*.<.<.F.}. Xz.b.m.m.7.& pXpXpXpXpX",
"s `.6XtXiXiXiXiXwXwXiXiXiXyX).i <.1.2. XF.m.m.m.M.d.: pXpXpXpXpX",
":.3X@X6XyXiXiXqX4XeXiXiXiXtXrXy ,.<.<.{.{.m.M.M.l.w.* pXpXpXpXpX",
"8.OX+X3X$XtX8Xd.a.#XtXtX6X#X_.4.*.2.2.}..XF.n.n.l.v.: pXpXpXpXpX",
"a._. X#X6XwX[.0 pXp.5X6X+X+X[.$.*.h.2.OX@XF.n.l.k.v.& pXpXpXpXpX",
"a.3XwXtXuXiX6X3.| 2XqXtXqX4X+XX.*.2.h..X$X.Xk.l.k.v.: pXpXpXpXpX",
"s tXiXiXiXiXtX4X5XrXiXrXyX6X#X7 8.h.h.@X7X|.k.k.l.V.& pXpXpXpXpX",
"a [.iXiXiXiX8X8XyXyXiXiXyXtX`.t OXx.j.$X9X@Xk.k.l.A.: pXpXpXpXpX",
"pX=.uXiXiX8X#X8XyXyXiXiXyXyX] r _.3Xz.6XtX@Xl.|.eXN.& pXpXpXpXpX",
"pXr s.iXtX#X X6XtXtXuXiXiXs.> 1 p B.qXiXyXuXeX+X{ > X pXpXpXpXpX",
"pXpXq 6.XXoXS.6X8XyXyXtX6.> pXpXpXp C.yXiX6Xu.5 & pXpXpXpXpXpXpX",
"pXpXpX5 y i.B.6X6X].v.6 - pXpXpXpXpXi s.(.t 1 pXpXpXpXpXpXpXpXpX",
"pXpXpXpXpX- 5 4 4 1 % pXpXpXpXpXpXpXpX6 7 + pXpXpXpXpXpXpXpXpXpX",
"pXpXpXpXpXpXpXpXpXpXpXpXpXpXpXpXpXpXpXpXpXpXpXpXpXpXpXpXpXpXpXpX"
};
