/* XPM */
static char *izpack_16[] = {
/* columns rows colors chars-per-pixel */
"16 16 151 2",
"   c #222955",
".  c #004100",
"X  c #3C457A",
"o  c #4B527A",
"O  c #394393",
"+  c #505E99",
"@  c #555E9B",
"#  c #4E5AA0",
"$  c #4D5BA9",
"%  c #5D619A",
"&  c #5161AE",
"*  c #60688F",
"=  c #6275CB",
"-  c #6693F6",
";  c #699AF9",
":  c #6A9BF9",
">  c #6F9AF8",
",  c #7695FB",
"<  c #7C9EF2",
"1  c #69A0FB",
"2  c #977A6E",
"3  c #867A83",
"4  c #A38C6E",
"5  c #F6A110",
"6  c #F9AA1B",
"7  c #FCAA18",
"8  c #FEB51D",
"9  c #F7AB22",
"0  c #FBB026",
"q  c #FBB127",
"w  c #FEB82B",
"e  c #FEBD28",
"r  c #F9B937",
"t  c #FEBE30",
"y  c #DBAC4F",
"u  c #E6BC64",
"i  c #FEC330",
"p  c #FCC039",
"a  c #FEC938",
"s  c #FEC64F",
"d  c #FECC56",
"f  c #FED757",
"g  c #F0C270",
"h  c #FED666",
"j  c #FED86D",
"k  c #FEDC75",
"l  c #9B8D8F",
"z  c #9B9398",
"x  c #8791BC",
"c  c #929CB7",
"v  c #A6998E",
"b  c #A29897",
"n  c #A89CA8",
"m  c #BBA485",
"M  c #B1AAA6",
"N  c #BFB7A4",
"B  c #8999C5",
"V  c #8C9FCE",
"C  c #8090D3",
"Z  c #8999D8",
"A  c #919FDA",
"S  c #8099F5",
"D  c #819AF6",
"F  c #829EFC",
"G  c #8EA3EC",
"H  c #85A4FE",
"J  c #81AFFE",
"K  c #85AFFE",
"L  c #81B9FE",
"P  c #8CB5FE",
"I  c #90A4ED",
"U  c #97AAE8",
"Y  c #96AAEB",
"T  c #9CABED",
"R  c #91A7F8",
"E  c #92ABFE",
"W  c #92B9FC",
"Q  c #90BDFE",
"!  c #9FB1F2",
"~  c #9FB3FE",
"^  c #A6AACF",
"/  c #A2B1E6",
"(  c #A3B3F2",
")  c #A1B2F6",
"_  c #A6B9FC",
"`  c #A7BEFE",
"'  c #A9B7F5",
"]  c #B0BBE8",
"[  c #B1BDEE",
"{  c #86CBFE",
"}  c #8EC2FE",
"|  c #8FC2FE",
" . c #89D0FE",
".. c #92C5FE",
"X. c #9AC6FE",
"o. c #9FC4FE",
"O. c #99CBFE",
"+. c #95D0FE",
"@. c #A2CCFE",
"#. c #A6CEFE",
"$. c #A7D2FE",
"%. c #AED2FE",
"&. c #ACD5FE",
"*. c #B7C2F3",
"=. c #B2C6FD",
"-. c #BEC9F0",
";. c #BECCFE",
":. c #BECEFD",
">. c #B7DAFE",
",. c #D3C085",
"<. c #DDC988",
"1. c #CECAAC",
"2. c #FEE485",
"3. c #FEEE83",
"4. c #FBE796",
"5. c #EBE2AA",
"6. c #FEFEB3",
"7. c #FEFEB8",
"8. c #C8CECA",
"9. c #C0CAF9",
"0. c #C6DBFE",
"q. c #D6DCF7",
"w. c #D7DCFC",
"e. c #C6E6FE",
"r. c #C9E7FE",
"t. c #D6E6FE",
"y. c #D3E8FE",
"u. c #D3EEFE",
"i. c #D7EBFE",
"p. c #DDECFE",
"a. c #F6F3C0",
"s. c #FCFDD8",
"d. c #E2EEFE",
"f. c #E4EEFE",
"g. c #E7F1FE",
"h. c #E6F3FE",
"j. c #E8F3FE",
"k. c #EBF6FE",
"l. c #EDF7FE",
"z. c #EEFCFE",
"x. c #F0F7FE",
"c. c #F1FBFE",
"v. c #F2FBFE",
"b. c #F6FBFE",
"n. c #F8FCFE",
"m. c #F8FDFE",
"M. c #FBFEFE",
"N. c #FCFEFE",
"B. c #FDFEFE",
"V. c #FEFEFE",
"C. c None",
/* pixels */
"C.C.C.C.C.C.D G C.C.< C.C.C.C.C.",
"C.C.C.C.C.^ 5.7.# B s.8.# C.C.C.",
"C.C.C.C.D g h k u 4.7.6.1.# C.C.",
"C.C.C.C.C.n w i 8 6 j 2.2.,.@ C.",
"C.C.C.C.C., m a t 5 q s d f 3 C.",
"C.C.C.C.C.H K M p 7 q w r 2 C.C.",
"C.C.C.C.C.F ..J b 9 w y v c * O ",
"C.C.~ :._ R > L P z 4 l <.N o C.",
"C.9.V.V.t.f.*.- ..o.< V x   C.C.",
"E z.V.V.l.V.V.G : @.&.O.Q C.C.C.",
"` t.z.-.] m.g.( : X.>.+.| C.C.C.",
"=.h.M./ A l.p.! : #.e.{ | C.C.C.",
") V.V.l.m.V.M.T W %.u. .$.C.C.C.",
"C.q.z.t.V.V.w.& U h.M.r.Z C.C.C.",
"C.= Y 0.d.[ X C.C.' 9.@ C.C.C.C.",
"C.C.C.C.C.C.C.C.C.C.C.C.C.C.C.C."
};
